# xmcd
# 
# Track frame offsets:
#     150
#     9695
#     18980
#     29490
#     38637
#     51732
#     64967
#     74940
#     83355
#     92942
#     107177
#     117565
#     127422
#     141182
#     150825
#     163467
#     173592
#     186397
#     199017
#     212467
#     226340
#     239165
#     251020
#     264302
# 
# Disc length: 3651
# 
# Revision: 5
# Processed by: cddbd v1.5.2PL0 Copyright (c) Steve Scherf et al.
# Submitted via: BonkEnc v1.0.8
# 
DISCID=6a0e4118
DTITLE=Les Paul with Mary Ford - How High the Moon #1: The Hit Makers - Time To Dream
DYEAR=2003
DGENRE=Jazz
TTITLE0=How High The Moon
TTITLE1=Josephine
TTITLE2=Mockin' Birg Hill
TTITLE3=Whispering
TTITLE4=Vaya Con Dios (May God be With You)
TTITLE5=I'm A Fool To Care
TTITLE6=The World Is Waiting For The Sunrise
TTITLE7=Meet Mister Callaghan
TTITLE8=Tiger Rag
TTITLE9=Tennessee Waltz
TTITLE10=I'm Sitting On Top Of The World
TTITLE11=Whither Thou Goest
TTITLE12=That Old Feeling
TTITLE13=Bewitched
TTITLE14=My Silent Love
TTITLE15=I Surrender, Dear
TTITLE16=You Call It Madness (But I Call It Love)
TTITLE17=June In January
TTITLE18=Moonlight And Shadows
TTITLE19=I Can't Get Started
TTITLE20=How Deep Is The Ocean
TTITLE21=Sweet And Lovely
TTITLE22=Prisoner Of Love
TTITLE23=If I Had You
EXTD=YEAR: 2003
EXTT0=
EXTT1=
EXTT2=
EXTT3=
EXTT4=
EXTT5=
EXTT6=
EXTT7=
EXTT8=
EXTT9=
EXTT10=
EXTT11=
EXTT12=
EXTT13=
EXTT14=
EXTT15=
EXTT16=
EXTT17=
EXTT18=
EXTT19=
EXTT20=
EXTT21=
EXTT22=
EXTT23=
PLAYORDER=
